<?xml version="1.0" encoding="iso-8859-1"?>
<!-- Generator: Adobe Illustrator 19.0.0, SVG Export Plug-In . SVG Version: 6.00 Build 0)  -->
<svg version="1.1" id="Layer_1" xmlns="http://www.w3.org/2000/svg" xmlns:xlink="http://www.w3.org/1999/xlink" x="0px" y="0px"
	 viewBox="0 0 512 512" style="enable-background:new 0 0 512 512;" xml:space="preserve">
<polygon style="fill:#CFF09E;" points="312.288,377.856 231.652,282.443 280.535,282.443 194.374,163.431 232.852,163.431 
	162.761,58.226 92.669,163.431 131.146,163.431 44.985,282.443 93.868,282.443 13.232,377.856 "/>
<path style="fill:#507C5C;" d="M498.77,364.625H318.43l-45.106-53.372l15.944-18.865c2.768-2.425,4.524-5.977,4.524-9.946
	c0-3.172-1.115-6.082-2.976-8.362l-18.48-25.526l56.008-77.363c2.916-4.026,3.329-9.348,1.068-13.776
	c-2.261-4.429-6.811-7.215-11.784-7.215h-13.762l45.377-68.109l45.377,68.109h-13.762c-4.972,0-9.523,2.787-11.784,7.215
	c-2.261,4.429-1.848,9.749,1.068,13.776l70.965,98.02h-22.97c-7.306,0-13.231,5.924-13.231,13.231
	c0,7.308,5.925,13.231,13.231,13.231h48.883c4.972,0,9.523-2.787,11.784-7.215c2.261-4.427,1.848-9.749-1.068-13.776l-70.965-98.02
	h12.563c4.88,0,9.361-2.685,11.665-6.986c2.302-4.3,2.051-9.52-0.654-13.581L360.254,50.889c-2.453-3.684-6.587-5.896-11.011-5.896
	s-8.558,2.212-11.011,5.896L268.14,156.094c-2.704,4.061-2.956,9.28-0.654,13.581c2.304,4.301,6.786,6.986,11.665,6.986h12.563
	l-35.713,49.33l-35.713-49.329h12.563c0.011,0,0.017,0,0.026,0c7.308,0,13.231-5.924,13.231-13.231c0-2.993-0.994-5.753-2.669-7.969
	L173.772,50.891c-2.453-3.684-6.587-5.896-11.011-5.896c-4.425,0-8.558,2.212-11.011,5.896L81.658,156.095
	c-2.704,4.059-2.956,9.279-0.654,13.581c2.302,4.302,6.785,6.986,11.665,6.986h12.563l-70.963,98.02
	c-2.915,4.026-3.328,9.348-1.066,13.776c2.26,4.429,6.813,7.215,11.784,7.215h20.378L3.126,369.317
	c-3.325,3.934-4.065,9.439-1.896,14.111c2.169,4.672,6.851,7.661,12.001,7.661h109.217v62.686c0,7.308,5.924,13.231,13.231,13.231
	h54.158c7.308,0,13.231-5.924,13.231-13.231v-39.997c0-7.308-5.924-13.231-13.231-13.231c-7.308,0-13.231,5.924-13.231,13.231
	v26.766H148.91v-49.455h50.802h109.218v62.686c0,7.308,5.925,13.231,13.231,13.231h54.158c7.306,0,13.231-5.924,13.231-13.231
	v-39.997c0-7.308-5.925-13.231-13.231-13.231c-7.306,0-13.231,5.924-13.231,13.231v26.766h-27.696v-49.455h163.376
	c7.306,0,13.231-5.924,13.231-13.231C512,370.55,506.076,364.625,498.77,364.625z M41.738,364.625l62.236-73.643
	c3.325-3.934,4.065-9.439,1.896-14.111c-2.169-4.672-6.851-7.661-12.001-7.661H70.9l70.963-98.02
	c2.915-4.026,3.328-9.348,1.066-13.776c-2.261-4.429-6.813-7.215-11.784-7.215h-13.763l45.377-68.109l45.377,68.109h-13.763
	c-4.971,0-9.524,2.787-11.784,7.215c-2.26,4.429-1.848,9.749,1.066,13.776l70.963,98.02h-22.968c-5.151,0-9.834,2.989-12.001,7.661
	c-2.169,4.672-1.429,10.178,1.896,14.111l62.236,73.643H41.738z"/>
<g>
</g>
<g>
</g>
<g>
</g>
<g>
</g>
<g>
</g>
<g>
</g>
<g>
</g>
<g>
</g>
<g>
</g>
<g>
</g>
<g>
</g>
<g>
</g>
<g>
</g>
<g>
</g>
<g>
</g>
</svg>
