<?xml version="1.0" encoding="iso-8859-1"?>
<!-- Generator: Adobe Illustrator 19.0.0, SVG Export Plug-In . SVG Version: 6.00 Build 0)  -->
<svg version="1.1" id="Layer_1" xmlns="http://www.w3.org/2000/svg" xmlns:xlink="http://www.w3.org/1999/xlink" x="0px" y="0px"
	 viewBox="0 0 503.467 503.467" style="enable-background:new 0 0 503.467 503.467;" xml:space="preserve">
<g transform="translate(1 7)">
	<path style="fill:#ECF4F7;" d="M242.2,83.453c-2.56,0-5.973,0.853-8.533,1.707C208.92,92.84,191,115.027,191,142.334v25.6h119.467
		v-25.6c0-27.307-17.92-50.347-42.667-57.173c-2.56-0.853-5.12-1.707-8.533-1.707c2.56,0,5.973,0.853,8.533,1.707l0,0V48.467
		h-17.067h-17.067V85.16l0,0C236.227,84.307,238.787,83.453,242.2,83.453z M156.867,423.933v34.133H3.267V492.2H498.2v-34.133H344.6
		v-34.133l0,0V304.467H156.867V423.933L156.867,423.933z M344.6,202.067v102.4H156.867v-102.4H191h119.467H344.6z M191,202.067
		h119.467v-34.133H191V202.067z"/>
	<path style="fill:#ECF4F7;" d="M447,304.467h-51.2h-51.2v119.467v34.133h153.6v-153.6H447z M395.8,304.467H447v-34.133h-51.2
		V304.467z M156.867,423.933v34.133H3.267v-153.6h51.2h51.2h51.2V423.933z M54.467,304.467h51.2v-34.133h-51.2V304.467z"/>
</g>
<path style="fill:#51565F;" d="M499.2,503.467H4.267C1.707,503.467,0,501.76,0,499.2c0-2.56,1.707-4.267,4.267-4.267H499.2
	c2.56,0,4.267,1.707,4.267,4.267C503.467,501.76,501.76,503.467,499.2,503.467z M499.2,469.333c-2.56,0-4.267-1.707-4.267-4.267
	V315.733H349.867v110.933h106.667c2.56,0,4.267,1.707,4.267,4.267c0,2.56-1.707,4.267-4.267,4.267H349.867v25.6H473.6
	c2.56,0,4.267,1.707,4.267,4.267c0,2.56-1.707,4.267-4.267,4.267h-128c-2.56,0-4.267-1.707-4.267-4.267V435.2H307.2v29.867
	c0,2.56-1.707,4.267-4.267,4.267s-4.267-1.707-4.267-4.267V435.2h-25.6v29.867c0,2.56-1.707,4.267-4.267,4.267
	s-4.267-1.707-4.267-4.267V435.2h-25.6v29.867c0,2.56-1.707,4.267-4.267,4.267c-2.56,0-4.267-1.707-4.267-4.267V435.2h-25.6v29.867
	c0,2.56-1.707,4.267-4.267,4.267s-4.267-1.707-4.267-4.267V435.2h-34.133v29.867c0,2.56-1.707,4.267-4.267,4.267h-128
	c-2.56,0-4.267-1.707-4.267-4.267c0-2.56,1.707-4.267,4.267-4.267H153.6v-25.6H46.933c-2.56,0-4.267-1.707-4.267-4.267
	c0-2.56,1.707-4.267,4.267-4.267H153.6V315.733H8.533v149.333c0,2.56-1.707,4.267-4.267,4.267S0,467.627,0,465.067v-153.6
	c0-2.56,1.707-4.267,4.267-4.267H51.2v-29.867c0-2.56,1.707-4.267,4.267-4.267h51.2c2.56,0,4.267,1.707,4.267,4.267v8.533
	c0,2.56-1.707,4.267-4.267,4.267s-4.267-1.707-4.267-4.267V281.6H59.733v25.6H153.6v-98.133c0-2.56,1.707-4.267,4.267-4.267h29.867
	v-55.467c0-28.16,17.92-51.2,42.667-60.587v-33.28c0-2.56,1.707-4.267,4.267-4.267h12.8V4.267c0-2.56,1.707-4.267,4.267-4.267
	C254.293,0,256,1.707,256,4.267V51.2h12.8c2.56,0,4.267,1.707,4.267,4.267v33.28c24.747,8.533,42.667,32.427,42.667,60.587V204.8
	H345.6c2.56,0,4.267,1.707,4.267,4.267v76.8c0,2.56-1.707,4.267-4.267,4.267s-4.267-1.707-4.267-4.267v-72.533h-29.867
	c-2.56,0-4.267-1.707-4.267-4.267V179.2h-34.133v25.6h12.8c2.56,0,4.267,1.707,4.267,4.267c0,2.56-1.707,4.267-4.267,4.267H162.133
	V307.2h230.4v-29.867c0-2.56,1.707-4.267,4.267-4.267H448c2.56,0,4.267,1.707,4.267,4.267v8.533c0,2.56-1.707,4.267-4.267,4.267
	s-4.267-1.707-4.267-4.267V281.6h-42.667v25.6H499.2c2.56,0,4.267,1.707,4.267,4.267v153.6
	C503.467,467.627,501.76,469.333,499.2,469.333z M162.133,426.667h179.2V315.733h-179.2V426.667z M238.933,204.8h25.6v-25.6h-25.6
	V204.8z M196.267,204.8H230.4v-25.6h-12.8c-2.56,0-4.267-1.707-4.267-4.267c0-2.56,1.707-4.267,4.267-4.267h89.6v-21.333
	c0-24.747-17.067-46.08-40.107-52.907h-30.72c-23.04,6.827-40.107,28.16-40.107,52.907V204.8z M251.733,85.333
	c4.267,0,8.533,0.853,12.8,1.707V59.733h-25.6V87.04C243.2,86.187,247.467,85.333,251.733,85.333z M456.533,401.067
	c-2.56,0-4.267-1.707-4.267-4.267v-17.067c0-2.56,1.707-4.267,4.267-4.267s4.267,1.707,4.267,4.267V396.8
	C460.8,399.36,459.093,401.067,456.533,401.067z M422.4,401.067c-2.56,0-4.267-1.707-4.267-4.267v-17.067
	c0-2.56,1.707-4.267,4.267-4.267s4.267,1.707,4.267,4.267V396.8C426.667,399.36,424.96,401.067,422.4,401.067z M388.267,401.067
	c-2.56,0-4.267-1.707-4.267-4.267v-17.067c0-2.56,1.707-4.267,4.267-4.267s4.267,1.707,4.267,4.267V396.8
	C392.533,399.36,390.827,401.067,388.267,401.067z M302.933,401.067c-2.56,0-4.267-1.707-4.267-4.267v-51.2
	c0-2.56,1.707-4.267,4.267-4.267s4.267,1.707,4.267,4.267v51.2C307.2,399.36,305.493,401.067,302.933,401.067z M268.8,401.067
	c-2.56,0-4.267-1.707-4.267-4.267v-51.2c0-2.56,1.707-4.267,4.267-4.267s4.267,1.707,4.267,4.267v51.2
	C273.067,399.36,271.36,401.067,268.8,401.067z M234.667,401.067c-2.56,0-4.267-1.707-4.267-4.267v-51.2
	c0-2.56,1.707-4.267,4.267-4.267c2.56,0,4.267,1.707,4.267,4.267v51.2C238.933,399.36,237.227,401.067,234.667,401.067z
	 M200.533,401.067c-2.56,0-4.267-1.707-4.267-4.267v-51.2c0-2.56,1.707-4.267,4.267-4.267s4.267,1.707,4.267,4.267v51.2
	C204.8,399.36,203.093,401.067,200.533,401.067z M115.2,401.067c-2.56,0-4.267-1.707-4.267-4.267v-17.067
	c0-2.56,1.707-4.267,4.267-4.267c2.56,0,4.267,1.707,4.267,4.267V396.8C119.467,399.36,117.76,401.067,115.2,401.067z
	 M81.067,401.067c-2.56,0-4.267-1.707-4.267-4.267v-17.067c0-2.56,1.707-4.267,4.267-4.267c2.56,0,4.267,1.707,4.267,4.267V396.8
	C85.333,399.36,83.627,401.067,81.067,401.067z M46.933,401.067c-2.56,0-4.267-1.707-4.267-4.267v-17.067
	c0-2.56,1.707-4.267,4.267-4.267c2.56,0,4.267,1.707,4.267,4.267V396.8C51.2,399.36,49.493,401.067,46.933,401.067z M302.933,281.6
	c-2.56,0-4.267-1.707-4.267-4.267V243.2c0-2.56,1.707-4.267,4.267-4.267s4.267,1.707,4.267,4.267v34.133
	C307.2,279.893,305.493,281.6,302.933,281.6z M268.8,281.6c-2.56,0-4.267-1.707-4.267-4.267V243.2c0-2.56,1.707-4.267,4.267-4.267
	s4.267,1.707,4.267,4.267v34.133C273.067,279.893,271.36,281.6,268.8,281.6z M234.667,281.6c-2.56,0-4.267-1.707-4.267-4.267V243.2
	c0-2.56,1.707-4.267,4.267-4.267c2.56,0,4.267,1.707,4.267,4.267v34.133C238.933,279.893,237.227,281.6,234.667,281.6z
	 M200.533,281.6c-2.56,0-4.267-1.707-4.267-4.267V243.2c0-2.56,1.707-4.267,4.267-4.267s4.267,1.707,4.267,4.267v34.133
	C204.8,279.893,203.093,281.6,200.533,281.6z"/>
<g>
</g>
<g>
</g>
<g>
</g>
<g>
</g>
<g>
</g>
<g>
</g>
<g>
</g>
<g>
</g>
<g>
</g>
<g>
</g>
<g>
</g>
<g>
</g>
<g>
</g>
<g>
</g>
<g>
</g>
</svg>
