<?xml version="1.0" encoding="iso-8859-1"?>
<!-- Generator: Adobe Illustrator 19.0.0, SVG Export Plug-In . SVG Version: 6.00 Build 0)  -->
<svg version="1.1" id="Layer_1" xmlns="http://www.w3.org/2000/svg" xmlns:xlink="http://www.w3.org/1999/xlink" x="0px" y="0px"
	 viewBox="0 0 512 512" style="enable-background:new 0 0 512 512;" xml:space="preserve">
<g>
	<path style="fill:#F4B2B0;" d="M459.901,50.126h-59.404h-96.332h-96.331h-96.332H52.099c-20.394,0-36.927,16.533-36.927,36.927
		v101.28c0,26.601,21.564,48.166,48.166,48.166l0,0c26.601,0,48.166-21.564,48.166-48.166c0,26.601,21.564,48.166,48.166,48.166l0,0
		c26.601,0,48.166-21.564,48.166-48.166c0,26.601,21.565,48.166,48.166,48.166l0,0c26.601,0,48.166-21.564,48.166-48.166
		c0,26.601,21.565,48.166,48.166,48.166l0,0c26.601,0,48.166-21.564,48.166-48.166c0,26.601,21.565,48.166,48.166,48.166l0,0
		c26.601,0,48.166-21.564,48.166-48.166V162.1v-43.771V87.052C496.828,66.658,480.295,50.126,459.901,50.126z"/>
</g>
<path style="fill:#B3404A;" d="M459.901,34.954H52.099C23.372,34.954,0,58.324,0,87.052v101.281
	c0,23.048,12.38,43.255,30.835,54.335v219.206c0,8.378,6.792,15.172,15.172,15.172h419.984c8.378,0,15.172-6.794,15.172-15.172
	V308.769c0-8.378-6.794-15.172-15.172-15.172s-15.172,6.794-15.172,15.172v137.935H335.459V316.689
	c0-8.378-6.794-15.172-15.172-15.172H191.712c-8.379,0-15.172,6.794-15.172,15.172v56.136c0,8.378,6.792,15.172,15.172,15.172
	s15.172-6.794,15.172-15.172v-40.964h98.233v114.843H61.179V251.615c0.718,0.024,1.434,0.055,2.157,0.055
	c19.259,0,36.54-8.642,48.166-22.25c11.626,13.608,28.907,22.25,48.166,22.25s36.538-8.642,48.166-22.25
	c11.626,13.608,28.907,22.25,48.166,22.25s36.54-8.642,48.166-22.25c11.626,13.608,28.907,22.25,48.165,22.25
	c19.259,0,36.54-8.642,48.166-22.25c11.626,13.608,28.907,22.25,48.165,22.25c34.926,0,63.338-28.414,63.338-63.336V87.052
	C512,58.324,488.629,34.954,459.901,34.954z M481.656,188.334c0,18.193-14.802,32.993-32.994,32.993s-32.993-14.8-32.993-32.993
	v-44.088c0-8.378-6.794-15.172-15.172-15.172s-15.172,6.794-15.172,15.172v44.088c0,18.193-14.802,32.993-32.994,32.993
	c-18.193,0-32.993-14.8-32.993-32.993v-72.992c0-8.378-6.794-15.172-15.172-15.172s-15.172,6.794-15.172,15.172v72.99
	c0,18.193-14.802,32.993-32.994,32.993s-32.994-14.8-32.994-32.993v-44.086c0-8.378-6.792-15.172-15.172-15.172
	s-15.172,6.794-15.172,15.172v44.088c0,18.193-14.8,32.993-32.994,32.993s-32.994-14.8-32.994-32.993v-72.992
	c0-8.378-6.792-15.172-15.172-15.172s-15.172,6.794-15.172,15.172v72.99c0,18.193-14.802,32.993-32.994,32.993
	s-32.993-14.799-32.993-32.991V87.052c0-11.995,9.76-21.755,21.755-21.755h407.803c11.995,0,21.755,9.76,21.755,21.755
	L481.656,188.334L481.656,188.334z"/>
<g>
</g>
<g>
</g>
<g>
</g>
<g>
</g>
<g>
</g>
<g>
</g>
<g>
</g>
<g>
</g>
<g>
</g>
<g>
</g>
<g>
</g>
<g>
</g>
<g>
</g>
<g>
</g>
<g>
</g>
</svg>
